<?xml version="1.0" encoding="utf-8" standalone="no"?>
<!DOCTYPE svg PUBLIC "-//W3C//DTD SVG 1.1//EN"
  "http://www.w3.org/Graphics/SVG/1.1/DTD/svg11.dtd">
<svg xmlns:xlink="http://www.w3.org/1999/xlink" width="296.952pt" height="167pt" viewBox="0 0 296.952 167" xmlns="http://www.w3.org/2000/svg" version="1.1">
 <metadata>
  <rdf:RDF xmlns:dc="http://purl.org/dc/elements/1.1/" xmlns:cc="http://creativecommons.org/ns#" xmlns:rdf="http://www.w3.org/1999/02/22-rdf-syntax-ns#">
   <cc:Work>
    <dc:type rdf:resource="http://purl.org/dc/dcmitype/StillImage"/>
    <dc:date>2025-11-26T08:06:28.043319</dc:date>
    <dc:format>image/svg+xml</dc:format>
    <dc:creator>
     <cc:Agent>
      <dc:title>Matplotlib v3.10.0, https://matplotlib.org/</dc:title>
     </cc:Agent>
    </dc:creator>
   </cc:Work>
  </rdf:RDF>
 </metadata>
 <defs>
  <style type="text/css">*{stroke-linejoin: round; stroke-linecap: butt}</style>
 </defs>
 <g id="figure_1">
  <g id="patch_1">
   <path d="M 0 167 
L 296.952 167 
L 296.952 0 
L 0 0 
z
" style="fill: #ffffff"/>
  </g>
  <g id="axes_1">
   <g id="patch_2">
    <path d="M 67.272 103.28 
C 72.045656 103.28 76.624438 101.383406 79.999922 98.007922 
C 83.375406 94.632438 85.272 90.053656 85.272 85.28 
C 85.272 80.506344 83.375406 75.927562 79.999922 72.552078 
C 76.624438 69.176594 72.045656 67.28 67.272 67.28 
C 62.498344 67.28 57.919562 69.176594 54.544078 72.552078 
C 51.168594 75.927562 49.272 80.506344 49.272 85.28 
C 49.272 90.053656 51.168594 94.632438 54.544078 98.007922 
C 57.919562 101.383406 62.498344 103.28 67.272 103.28 
L 67.272 103.28 
z
" clip-path="url(#p8c4bcef018)" style="fill: none; stroke: #000000; stroke-width: 2; stroke-linejoin: miter"/>
   </g>
   <g id="patch_3">
    <path d="M 220.272 31.28 
C 220.272 30.086984 219.797571 28.94161 218.953981 28.098019 
C 218.11039 27.254429 216.965016 26.78 215.772 26.78 
C 214.578984 26.78 213.43361 27.254429 212.590019 28.098019 
C 211.746429 28.94161 211.272 30.086984 211.272 31.28 
" clip-path="url(#p8c4bcef018)" style="fill: none; stroke: #000000; stroke-width: 2; stroke-linejoin: miter"/>
   </g>
   <g id="patch_4">
    <path d="M 229.272 31.28 
C 229.272 30.086984 228.797571 28.94161 227.953981 28.098019 
C 227.11039 27.254429 225.965016 26.78 224.772 26.78 
C 223.578984 26.78 222.43361 27.254429 221.590019 28.098019 
C 220.746429 28.94161 220.272 30.086984 220.272 31.28 
" clip-path="url(#p8c4bcef018)" style="fill: none; stroke: #000000; stroke-width: 2; stroke-linejoin: miter"/>
   </g>
   <g id="patch_5">
    <path d="M 238.272 31.28 
C 238.272 30.086984 237.797571 28.94161 236.953981 28.098019 
C 236.11039 27.254429 234.965016 26.78 233.772 26.78 
C 232.578984 26.78 231.43361 27.254429 230.590019 28.098019 
C 229.746429 28.94161 229.272 30.086984 229.272 31.28 
" clip-path="url(#p8c4bcef018)" style="fill: none; stroke: #000000; stroke-width: 2; stroke-linejoin: miter"/>
   </g>
   <g id="patch_6">
    <path d="M 247.272 31.28 
C 247.272 30.086984 246.797571 28.94161 245.953981 28.098019 
C 245.11039 27.254429 243.965016 26.78 242.772 26.78 
C 241.578984 26.78 240.43361 27.254429 239.590019 28.098019 
C 238.746429 28.94161 238.272 30.086984 238.272 31.28 
" clip-path="url(#p8c4bcef018)" style="fill: none; stroke: #000000; stroke-width: 2; stroke-linejoin: miter"/>
   </g>
   <g id="line2d_1">
    <path d="M 67.272 139.28 
L 67.272 103.28 
L 67.272 103.28 
M 67.272 67.28 
L 67.272 67.28 
L 67.272 31.28 
" clip-path="url(#p8c4bcef018)" style="fill: none; stroke: #000000; stroke-width: 2; stroke-linecap: round"/>
   </g>
   <g id="line2d_2">
    <path d="M 76.272 85.28 
L 75.522 83.416503 
L 74.772 81.68 
L 74.022 80.188831 
L 73.272 79.044617 
L 72.522 78.325334 
L 71.772 78.08 
L 71.022 78.325334 
L 70.272 79.044617 
L 69.522 80.188831 
L 68.772 81.68 
L 68.022 83.416503 
L 67.272 85.28 
L 66.522 87.143497 
L 65.772 88.88 
L 65.022 90.371169 
L 64.272 91.515383 
L 63.522 92.234666 
L 62.772 92.48 
L 62.022 92.234666 
L 61.272 91.515383 
L 60.522 90.371169 
L 59.772 88.88 
L 59.022 87.143497 
L 58.272 85.28 
" clip-path="url(#p8c4bcef018)" style="fill: none; stroke: #000000; stroke-width: 2; stroke-linecap: round"/>
   </g>
   <g id="line2d_3">
    <path d="M 67.272 31.28 
L 103.272 31.28 
L 106.272 22.28 
L 112.272 40.28 
L 118.272 22.28 
L 124.272 40.28 
L 130.272 22.28 
L 136.272 40.28 
L 139.272 31.28 
L 175.272 31.28 
" clip-path="url(#p8c4bcef018)" style="fill: none; stroke: #000000; stroke-width: 2; stroke-linecap: round"/>
   </g>
   <g id="line2d_4">
    <path d="M 175.272 31.28 
L 211.272 31.28 
M 247.272 31.28 
L 283.272 31.28 
" clip-path="url(#p8c4bcef018)" style="fill: none; stroke: #000000; stroke-width: 2; stroke-linecap: round"/>
   </g>
   <g id="line2d_5">
    <path d="M 283.272 31.28 
L 283.272 82.04 
M 292.272 82.04 
L 274.272 82.04 
M 292.272 88.52 
L 274.272 88.52 
M 283.272 88.52 
L 283.272 139.28 
" clip-path="url(#p8c4bcef018)" style="fill: none; stroke: #000000; stroke-width: 2; stroke-linecap: round"/>
   </g>
   <g id="line2d_6">
    <path d="M 283.272 139.28 
L 175.272 139.28 
L 67.272 139.28 
" clip-path="url(#p8c4bcef018)" style="fill: none; stroke: #000000; stroke-width: 2; stroke-linecap: round"/>
   </g>
   <g id="line2d_7">
    <path d="M 67.272 139.28 
L 67.272 153.68 
L 58.272 153.68 
L 76.272 153.68 
M 60.972 158 
L 73.572 158 
M 65.472 162.32 
L 69.072 162.32 
" clip-path="url(#p8c4bcef018)" style="fill: none; stroke: #000000; stroke-width: 2; stroke-linecap: round"/>
   </g>
   <g id="text_1">
    <!-- $V_{in}(t)$ -->
    <g transform="translate(10.252 89.143125) scale(0.14 -0.14)">
     <defs>
      <path id="DejaVuSans-Oblique-56" d="M 1319 0 
L 500 4666 
L 1119 4666 
L 1797 653 
L 4063 4666 
L 4750 4666 
L 2053 0 
L 1319 0 
z
" transform="scale(0.015625)"/>
      <path id="DejaVuSans-Oblique-69" d="M 1172 4863 
L 1747 4863 
L 1606 4134 
L 1031 4134 
L 1172 4863 
z
M 909 3500 
L 1484 3500 
L 800 0 
L 225 0 
L 909 3500 
z
" transform="scale(0.015625)"/>
      <path id="DejaVuSans-Oblique-6e" d="M 3566 2113 
L 3156 0 
L 2578 0 
L 2988 2091 
Q 3016 2238 3031 2350 
Q 3047 2463 3047 2528 
Q 3047 2791 2881 2937 
Q 2716 3084 2419 3084 
Q 1956 3084 1622 2776 
Q 1288 2469 1184 1941 
L 800 0 
L 225 0 
L 903 3500 
L 1478 3500 
L 1363 2950 
Q 1603 3253 1940 3418 
Q 2278 3584 2650 3584 
Q 3113 3584 3367 3334 
Q 3622 3084 3622 2631 
Q 3622 2519 3608 2391 
Q 3594 2263 3566 2113 
z
" transform="scale(0.015625)"/>
      <path id="DejaVuSans-28" d="M 1984 4856 
Q 1566 4138 1362 3434 
Q 1159 2731 1159 2009 
Q 1159 1288 1364 580 
Q 1569 -128 1984 -844 
L 1484 -844 
Q 1016 -109 783 600 
Q 550 1309 550 2009 
Q 550 2706 781 3412 
Q 1013 4119 1484 4856 
L 1984 4856 
z
" transform="scale(0.015625)"/>
      <path id="DejaVuSans-Oblique-74" d="M 2706 3500 
L 2619 3053 
L 1472 3053 
L 1100 1153 
Q 1081 1047 1072 975 
Q 1063 903 1063 863 
Q 1063 663 1183 572 
Q 1303 481 1569 481 
L 2150 481 
L 2053 0 
L 1503 0 
Q 991 0 739 200 
Q 488 400 488 806 
Q 488 878 497 964 
Q 506 1050 525 1153 
L 897 3053 
L 409 3053 
L 500 3500 
L 978 3500 
L 1172 4494 
L 1747 4494 
L 1556 3500 
L 2706 3500 
z
" transform="scale(0.015625)"/>
      <path id="DejaVuSans-29" d="M 513 4856 
L 1013 4856 
Q 1481 4119 1714 3412 
Q 1947 2706 1947 2009 
Q 1947 1309 1714 600 
Q 1481 -109 1013 -844 
L 513 -844 
Q 928 -128 1133 580 
Q 1338 1288 1338 2009 
Q 1338 2731 1133 3434 
Q 928 4138 513 4856 
z
" transform="scale(0.015625)"/>
     </defs>
     <use xlink:href="#DejaVuSans-Oblique-56" transform="translate(0 0.125)"/>
     <use xlink:href="#DejaVuSans-Oblique-69" transform="translate(68.408203 -16.28125) scale(0.7)"/>
     <use xlink:href="#DejaVuSans-Oblique-6e" transform="translate(87.856445 -16.28125) scale(0.7)"/>
     <use xlink:href="#DejaVuSans-28" transform="translate(134.956055 0.125)"/>
     <use xlink:href="#DejaVuSans-Oblique-74" transform="translate(173.969727 0.125)"/>
     <use xlink:href="#DejaVuSans-29" transform="translate(213.178711 0.125)"/>
    </g>
   </g>
   <g id="text_2">
    <!-- $R$ -->
    <g transform="translate(116.372 15.768437) scale(0.14 -0.14)">
     <defs>
      <path id="DejaVuSans-Oblique-52" d="M 1613 4147 
L 1294 2491 
L 2106 2491 
Q 2584 2491 2879 2755 
Q 3175 3019 3175 3444 
Q 3175 3784 2976 3965 
Q 2778 4147 2406 4147 
L 1613 4147 
z
M 2772 2241 
Q 2972 2194 3105 2009 
Q 3238 1825 3413 1275 
L 3809 0 
L 3144 0 
L 2778 1197 
Q 2638 1659 2453 1815 
Q 2269 1972 1888 1972 
L 1191 1972 
L 806 0 
L 172 0 
L 1081 4666 
L 2503 4666 
Q 3150 4666 3495 4373 
Q 3841 4081 3841 3531 
Q 3841 3044 3547 2687 
Q 3253 2331 2772 2241 
z
" transform="scale(0.015625)"/>
     </defs>
     <use xlink:href="#DejaVuSans-Oblique-52" transform="translate(0 0.09375)"/>
    </g>
   </g>
   <g id="text_3">
    <!-- $L$ -->
    <g transform="translate(225.352 20.26846) scale(0.14 -0.14)">
     <defs>
      <path id="DejaVuSans-Oblique-4c" d="M 1075 4666 
L 1709 4666 
L 909 525 
L 3181 525 
L 3078 0 
L 172 0 
L 1075 4666 
z
" transform="scale(0.015625)"/>
     </defs>
     <use xlink:href="#DejaVuSans-Oblique-4c" transform="translate(0 0.09375)"/>
    </g>
   </g>
   <g id="text_4">
    <!-- $C$ -->
    <g transform="translate(260.872 89.143125) scale(0.14 -0.14)">
     <defs>
      <path id="DejaVuSans-Oblique-43" d="M 4447 4306 
L 4319 3641 
Q 4019 3944 3683 4091 
Q 3347 4238 2956 4238 
Q 2422 4238 2017 3981 
Q 1613 3725 1319 3200 
Q 1131 2863 1032 2486 
Q 934 2109 934 1728 
Q 934 1091 1264 756 
Q 1594 422 2222 422 
Q 2656 422 3056 561 
Q 3456 700 3834 978 
L 3688 231 
Q 3316 72 2936 -9 
Q 2556 -91 2175 -91 
Q 1278 -91 773 396 
Q 269 884 269 1753 
Q 269 2309 461 2846 
Q 653 3384 1013 3828 
Q 1394 4300 1883 4525 
Q 2372 4750 3022 4750 
Q 3422 4750 3780 4639 
Q 4138 4528 4447 4306 
z
" transform="scale(0.015625)"/>
     </defs>
     <use xlink:href="#DejaVuSans-Oblique-43" transform="translate(0 0.78125)"/>
    </g>
   </g>
  </g>
 </g>
 <defs>
  <clipPath id="p8c4bcef018">
   <rect x="0" y="-0" width="296.952" height="167"/>
  </clipPath>
 </defs>
</svg>
